<?xml version="1.0" encoding="UTF-8"?>
<svg id="Layer_1" data-name="Layer 1" xmlns="http://www.w3.org/2000/svg" viewBox="0 0 70.07 87.12">
  <defs>
    <style>
      .cls-1 {
        fill: #2882c5;
      }

      .cls-2 {
        fill: #050606;
      }
    </style>
  </defs>
  <path class="cls-1" d="m29.12,24.82c-.66-.2-1.3-.39-1.93-.58-2.67-.79-5.35-1.56-8.02-2.38-2.72-.84-4.47-2.64-5-5.46-.47-2.55.09-4.88,1.9-6.82,1.1-1.18,2.47-1.9,4.03-2.3,4.33-1.13,8.66-2.26,12.99-3.4,4.61-1.21,9.21-2.44,13.83-3.62,1.79-.46,3.57-.32,5.26.47,1.36.64,2.29,1.71,2.96,3.01.8,1.55.99,3.19.67,4.91-.22,1.18-.65,2.29-1.06,3.41-1,2.71-2.16,5.35-3.3,8-2.24,5.19-4.51,10.38-6.77,15.56-.36.84-.74,1.67-1.12,2.5-.52,1.15-1.25,2.13-2.32,2.83-.85.56-1.79.87-2.79,1-1.18.15-2.34.07-3.46-.35-1.26-.46-2.24-1.29-3.03-2.36-1-1.37-1.61-2.91-1.86-4.57-.15-1.01-.22-2.02-.32-3.04-.1-.97-.19-1.94-.28-2.92-.09-.98-.19-1.96-.28-2.95-.03-.31-.06-.62-.1-.96ZM48.89,3.41c-.39.05-.79.07-1.17.17-1.49.37-2.97.76-4.45,1.15-7.11,1.86-14.21,3.73-21.32,5.59-.65.17-1.31.32-1.94.57-1.11.44-1.97,1.18-2.43,2.32-.32.79-.38,1.61-.25,2.45.15.96.65,1.71,1.43,2.29.43.32.92.52,1.43.67,5.47,1.61,10.93,3.23,16.39,4.85,1.96.58,3.92,1.16,5.87,1.73,1.37.4,2.49.01,3.4-1.06.31-.37.55-.78.74-1.22.78-1.78,1.57-3.55,2.34-5.33,1.14-2.65,2.26-5.31,3.23-8.03.21-.58.38-1.16.48-1.77.18-1.07-.08-2.04-.68-2.93-.37-.55-.85-.93-1.47-1.15-.52-.19-1.06-.28-1.62-.3Zm-4.8,25.36c-.2,0-.33,0-.46,0-.4-.03-.81-.02-1.21-.1-.63-.13-1.25-.29-1.87-.48-2.56-.75-5.13-1.52-7.69-2.27-.11-.03-.23-.05-.37-.08,0,.11,0,.17.01.23.1,1.1.21,2.19.32,3.29.15,1.53.27,3.06.45,4.59.14,1.16.55,2.23,1.24,3.19.49.68,1.11,1.18,1.94,1.37.76.17,1.53.13,2.28-.09.77-.23,1.33-.7,1.72-1.4.11-.21.21-.43.31-.64,1.04-2.34,2.07-4.69,3.1-7.04.07-.17.14-.34.23-.56Z"/>
  <path class="cls-2" d="m15.24,58.76h-2.69v-10.25s-.04-.02-.06-.02c-.08.1-.16.2-.24.31-1.4,1.85-2.8,3.69-4.18,5.55-.19.26-.4.27-.67.26-.14,0-.18-.12-.25-.21-.86-1.16-1.72-2.32-2.57-3.48-.54-.74-1.08-1.47-1.63-2.21-.06-.08-.13-.15-.24-.29v10.35c-.91.02-1.81,0-2.72.01v-14.29c.08,0,.16-.03.24-.03.87,0,1.75,0,2.62,0,.23,0,.34.1.45.26,1.27,1.73,2.54,3.47,3.82,5.2.16.22.33.45.52.69.08-.1.15-.18.21-.26,1.37-1.87,2.75-3.73,4.11-5.6.15-.21.3-.3.56-.29.79.02,1.58,0,2.37,0h.33c.07.25.09,13.86.03,14.31Z"/>
  <path class="cls-2" d="m62.36,50.37c.08-.11.14-.18.19-.26.66-.92,1.57-1.44,2.69-1.54.7-.06,1.39-.02,2.07.19,1.39.42,2.19,1.39,2.55,2.77.15.58.21,1.17.21,1.76,0,1.76,0,3.51,0,5.27,0,.06,0,.12-.01.21h-2.49c0-.11-.01-.21-.01-.32,0-1.65,0-3.3,0-4.96,0-.45-.04-.89-.19-1.32-.21-.62-.6-1.08-1.26-1.22-.93-.19-1.77.13-2.29.99-.25.42-.38.87-.38,1.36,0,1.7,0,3.41,0,5.11,0,.11,0,.22,0,.35h-2.52c0-.12-.01-.23-.01-.35,0-1.63,0-3.26,0-4.89,0-.49-.05-.97-.25-1.43-.24-.56-.62-.99-1.22-1.16-.88-.26-1.76.01-2.3.81-.34.5-.48,1.06-.48,1.65,0,1.66,0,3.33,0,4.99,0,.12,0,.25,0,.39h-2.47c-.06-.21-.08-9.6-.02-10.12.75,0,1.5,0,2.29,0,.06.4.13.79.2,1.21.75-1.06,1.79-1.39,3-1.31,1.23.08,2.14.66,2.69,1.82Z"/>
  <path class="cls-2" d="m37.57,57.7c-.59.73-1.38,1.08-2.27,1.23-1.7.28-3.27,0-4.59-1.19-.78-.71-1.24-1.61-1.45-2.63-.29-1.37-.19-2.71.48-3.97.78-1.48,2.03-2.32,3.67-2.59.88-.14,1.74-.09,2.57.25.58.24,1.08.58,1.48,1.05.04.05.08.09.16.18.06-.47.12-.89.17-1.33h2.3c.06.22.08,13.82.02,14.26-.22.06-2.07.07-2.47.01v-5.24s-.05-.02-.07-.03Zm-2.78-1.09c.94-.04,1.88-.53,2.36-1.68.47-1.14.33-2.23-.5-3.17-.74-.82-1.72-.98-2.75-.81-1.64.28-2.47,1.73-2.22,3.28.22,1.44,1.37,2.37,3.11,2.38Z"/>
  <path class="cls-2" d="m49.96,49.95c.03-.41.05-.82.08-1.25h2.39v10.07h-2.35c-.04-.43-.08-.87-.12-1.31-.04,0-.07,0-.08.01-.51.79-1.26,1.23-2.14,1.45-1.7.41-3.27.1-4.66-1.01-.68-.55-1.12-1.28-1.38-2.11-.39-1.25-.43-2.52-.09-3.78.49-1.82,1.69-2.94,3.5-3.4.93-.23,1.86-.28,2.8-.01.78.23,1.45.62,1.93,1.29.02.02.03.05.04.08.02-.01.04-.02.07-.04Zm-6.03,3.78c0,.08,0,.18,0,.27.08,1.2.74,2.23,1.98,2.64.4.13.81.17,1.23.15,1.11-.07,1.93-.58,2.43-1.57.34-.67.43-1.39.28-2.12-.22-1.1-.81-1.9-1.9-2.27-.56-.19-1.14-.21-1.72-.08-1.03.23-1.75.82-2.12,1.82-.14.37-.2.76-.18,1.17Z"/>
  <path class="cls-2" d="m25.42,57.39c-.88,1.22-2.06,1.67-3.44,1.7-.67.01-1.32-.1-1.95-.32-1.4-.5-2.35-1.46-2.82-2.87-.44-1.31-.47-2.65-.09-3.99.51-1.76,1.7-2.83,3.46-3.28.94-.24,1.89-.29,2.83,0,.77.23,1.43.62,1.9,1.28.02.02.04.04.11.1.03-.45.06-.87.09-1.3h2.39v10.07h-2.34c-.04-.44-.08-.88-.13-1.37Zm-.04-3.73c-.02-.17-.03-.45-.09-.71-.27-1.12-.92-1.89-2.06-2.19-.51-.14-1.03-.14-1.54-.03-.99.22-1.71.78-2.08,1.74-.22.55-.26,1.13-.19,1.71.31,2.62,3.17,3.15,4.68,2.12.89-.61,1.24-1.5,1.28-2.64Z"/>
  <path class="cls-2" d="m29.04,65.9c.03-.46.06-.87.09-1.3h2.39c0,3.36,0,6.7,0,10.04-.22.06-1.89.08-2.35.02-.04-.43-.08-.87-.12-1.31-.05.02-.07.03-.08.04-.58.89-1.45,1.34-2.44,1.52-1.47.27-2.85,0-4.09-.87-.85-.6-1.38-1.43-1.67-2.41-.36-1.22-.39-2.46-.06-3.69.49-1.81,1.69-2.94,3.5-3.39.91-.23,1.84-.28,2.77-.02.79.22,1.47.62,1.96,1.3.02.02.04.04.11.09Zm-.05,3.79c0-.16,0-.28-.02-.4-.09-.97-.63-2.12-1.93-2.55-.58-.19-1.19-.22-1.78-.07-1.13.27-1.86.97-2.15,2.1-.12.45-.13.9-.07,1.36.33,2.67,3.29,3.15,4.77,2.04.83-.62,1.16-1.49,1.19-2.46Z"/>
  <path class="cls-2" d="m53.97,70.55h-7.89c.05.19.07.34.13.49.29.77.86,1.23,1.63,1.46,1.22.37,2.4.2,3.52-.39.16-.09.31-.21.49-.34.52.51,1.05,1.02,1.61,1.57-.25.2-.45.38-.68.54-.74.51-1.56.82-2.44.97-1.17.2-2.34.17-3.47-.22-1.89-.65-2.96-1.99-3.29-3.94-.16-.93-.13-1.87.14-2.78.5-1.66,1.58-2.78,3.23-3.31,1.27-.41,2.56-.41,3.83-.03,1.73.5,2.74,1.69,3.13,3.42.19.82.19,1.65.12,2.48,0,.02-.02.04-.05.09Zm-7.83-2.12c.57.07,5.22.04,5.45-.03-.12-.78-.53-1.33-1.26-1.65-.59-.25-1.21-.3-1.83-.23-.55.06-1.07.24-1.51.6-.42.34-.69.76-.85,1.3Z"/>
  <path class="cls-2" d="m6.28,62.79H1.74v-2.43h11.8c.06.22.08,1.92.02,2.42-.75.01-1.5,0-2.25,0-.75,0-1.49,0-2.29,0-.01.81,0,1.59,0,2.38,0,.79,0,1.58,0,2.37v4.74c0,.79,0,1.58,0,2.39h-2.73c0-.64,0-1.29,0-1.94,0-.67,0-1.33,0-2v-7.93Z"/>
  <path class="cls-2" d="m59.29,73.21c.4-.58.81-1.16,1.22-1.75.19.15.34.29.51.4.79.53,1.66.83,2.6.96.41.06.81.05,1.2-.08.23-.08.46-.2.66-.34.13-.09.23-.24.3-.39.22-.44.05-.91-.39-1.13-.34-.17-.71-.22-1.08-.26-.53-.06-1.05-.1-1.57-.19-.61-.1-1.18-.31-1.72-.61-1.83-1.01-1.8-3.58-.18-4.66.57-.38,1.2-.63,1.86-.74,1.13-.2,2.25-.17,3.36.16.69.21,1.43.64,1.82,1.07-.46.53-.91,1.07-1.36,1.59-.03,0-.05,0-.05-.02-.86-.77-1.9-.94-3-.83-.29.03-.6.11-.86.24-.64.32-.66,1.1-.05,1.48.37.23.79.3,1.22.33.73.06,1.47.1,2.18.31.36.11.73.25,1.06.43.68.37,1.1.96,1.28,1.72.32,1.39-.23,2.69-1.45,3.42-.37.22-.76.39-1.18.48-1.51.34-3.01.29-4.46-.27-.69-.27-1.27-.69-1.8-1.21-.04-.04-.06-.08-.1-.13Z"/>
  <path class="cls-2" d="m31.72,64.55c.15,0,.24-.02.33-.02.71,0,1.41,0,2.12,0,.22,0,.32.07.41.28.98,2.26,1.85,4.56,2.68,6.87.05.13.09.25.16.44.06-.14.11-.24.14-.34.44-1.2.86-2.4,1.32-3.59.45-1.16.94-2.3,1.41-3.46.05-.13.12-.2.27-.2.8,0,1.6,0,2.4,0,.03,0,.06.01.11.03-.02.08-.04.16-.07.23-1.37,3.23-2.75,6.45-4.12,9.68-.06.14-.1.26-.3.26-.83-.01-1.66,0-2.53,0-1.44-3.37-2.89-6.75-4.36-10.17Z"/>
  <path class="cls-2" d="m20.51,65.28c-.39.74-.76,1.44-1.14,2.17-.06-.04-.09-.06-.12-.08-.79-.62-1.67-.68-2.6-.43-.93.25-1.43.91-1.59,1.84-.04.22-.05.45-.05.68,0,1.6,0,3.2,0,4.8,0,.12,0,.25,0,.37-.24.07-1.77.09-2.46.04-.07-.22-.08-9.72,0-10.06h2.28c.06.35.12.71.19,1.09.05-.04.08-.06.1-.09.52-.76,1.25-1.16,2.16-1.25.95-.09,1.86.05,2.7.54.18.11.35.25.53.38Z"/>
  <path class="cls-2" d="m55.54,60.38h2.45v14.3c-.81.02-1.62,0-2.43,0-.07-.24-.09-13.84-.02-14.3Z"/>
  <path class="cls-1" d="m51.8,84.44v-1.61c.18,0,.34-.02.5-.03.08.23.11,3.78.04,4.25h-.47c-.01-.11-.03-.23-.04-.34-.25.12-.5.27-.77.34-.29.08-.6.04-.88-.07-.28-.11-.51-.28-.68-.52-.43-.62-.34-1.56.19-2.06.45-.43,1.39-.63,2.12.03Zm-2.01,1.1c0,.64.4,1.06,1,1.07.6,0,1.02-.42,1.03-1.04,0-.6-.35-1.05-1-1.08-.59-.03-1.02.43-1.02,1.05Z"/>
  <path class="cls-1" d="m22.14,86.43c.32-.83.62-1.61.92-2.38h.47c.29.77.58,1.54.87,2.31.02,0,.04,0,.06,0,.29-.76.58-1.53.88-2.31h.48c-.02.08-.04.15-.06.21-.32.85-.64,1.71-.97,2.56-.03.08-.08.21-.14.22-.14.03-.29.03-.43,0-.06-.02-.11-.14-.14-.22-.22-.56-.43-1.12-.65-1.68-.04-.09-.08-.19-.14-.33-.06.12-.09.2-.13.28-.23.58-.45,1.16-.68,1.74-.03.08-.08.2-.15.22-.14.03-.29.01-.43,0-.03,0-.07-.07-.09-.12-.36-.95-.71-1.9-1.08-2.88h.52c.28.76.57,1.54.88,2.37Z"/>
  <path class="cls-1" d="m32.03,87.05c0-.31,0-.6,0-.89,0-.31,0-.62,0-.93-.02-.44-.33-.69-.68-.72-.64-.06-1.05.27-1.08.9-.02.42,0,.85-.01,1.28,0,.11,0,.22,0,.35-.11.01-.19.03-.27.03-.08,0-.16,0-.24,0-.07-.25-.08-3.93-.01-4.23h.51v1.59c.3-.24.58-.37.91-.4.95-.08,1.41.5,1.41,1.19,0,.56,0,1.12,0,1.68,0,.05-.01.1-.02.17h-.54Z"/>
  <path class="cls-1" d="m37.77,83.98c-.82-.74-1.86-.47-2.3,0-.53.56-.56,1.49-.07,2.08.57.68,1.47.72,2.39.09.1.11.2.23.3.35-.43.68-1.98.89-2.9.14-.87-.72-.97-2.13-.19-2.98.82-.89,2.45-.84,3.12-.04-.05.06-.1.12-.15.17-.06.06-.12.11-.2.18Z"/>
  <path class="cls-1" d="m15.53,85.72c.15.9,1.06,1.15,1.99.53.03.05.07.11.11.17.04.06.08.11.13.18-.23.3-.55.42-.89.48-.3.05-.6.03-.89-.07-.79-.27-1.07-.95-1.03-1.57.05-.79.56-1.31,1.33-1.41,1.04-.13,1.78.66,1.68,1.66-.26.06-.53.02-.79.03-.27,0-.54,0-.81,0s-.54,0-.83,0Zm1.89-.4c-.06-.56-.48-.89-1.04-.85-.48.04-.84.41-.81.85h1.85Z"/>
  <path class="cls-1" d="m55.93,85.72h-2.42c-.02.74,1.09,1.26,1.95.55.09.1.18.21.28.32-.23.31-.55.43-.89.48-.32.05-.64.02-.95-.09-.76-.28-1.13-1.05-.93-1.88.18-.72.87-1.17,1.63-1.08.82.1,1.34.69,1.34,1.52,0,.05-.01.1-.03.18Zm-.54-.41c0-.52-.52-.87-.99-.84-.49.03-.84.35-.88.84h1.87Z"/>
  <path class="cls-1" d="m63.52,85.71c.08.88,1.07,1.16,1.95.55.09.1.18.2.28.32-.23.3-.54.42-.88.48-.31.05-.62.03-.92-.07-.75-.26-1.16-1.01-.98-1.82.17-.76.85-1.25,1.67-1.15.87.11,1.41.8,1.28,1.69h-2.4Zm1.88-.4c-.08-.59-.52-.92-1.09-.84-.46.06-.81.44-.76.84h1.85Z"/>
  <path class="cls-1" d="m11,85.3c.03-.48-.12-.68-.52-.79-.34-.09-.66,0-.97.13-.09.04-.16.09-.28.15-.07-.12-.14-.24-.22-.38.16-.16.35-.24.54-.3.37-.12.75-.14,1.14-.07.48.09.84.44.86.93.03.68,0,1.37,0,2.07h-.48c-.01-.08-.03-.17-.05-.28-.04.01-.08.02-.1.04-.43.33-.9.35-1.39.2-.45-.14-.67-.5-.61-.96.05-.38.35-.64.8-.7.24-.03.48-.04.71-.05.17,0,.35,0,.55,0Zm0,.42c-.35,0-.68,0-1.01,0-.07,0-.14.03-.21.05-.19.06-.29.19-.3.39,0,.2.08.35.26.42.34.14.67.12.98-.07.29-.18.35-.44.27-.79Z"/>
  <path class="cls-1" d="m39.83,87.09c-.93,0-1.59-.66-1.58-1.56,0-.74.47-1.52,1.58-1.53.99,0,1.58.63,1.6,1.54.02.89-.67,1.55-1.6,1.55Zm0-.49c.61,0,1.02-.42,1.03-1.05,0-.62-.41-1.06-1.01-1.08-.6-.02-1.04.44-1.04,1.07,0,.63.41,1.05,1.02,1.05Z"/>
  <path class="cls-1" d="m44.84,87.06h-.52c-.01-.08-.03-.15-.03-.23,0-.33,0-.66,0-1,0-.15,0-.29,0-.44-.01-.57-.24-.85-.74-.89-.54-.04-.92.23-1.01.75-.03.14-.03.29-.03.43,0,.45,0,.89,0,1.36h-.54v-2.99h.52c0,.1.02.2.03.34.07-.04.12-.08.18-.11.43-.3.9-.35,1.39-.2.41.12.63.42.73.82.03.11.04.23.04.34,0,.59,0,1.18,0,1.81Z"/>
  <path class="cls-1" d="m56.53,84.05h.49c.01.11.02.22.04.36.06-.04.09-.05.12-.07.41-.34.89-.39,1.38-.27.49.12.78.47.81.95.04.67.01,1.34.01,2.04h-.52c0-.09-.02-.18-.02-.27,0-.5,0-1,0-1.49,0-.27-.09-.51-.32-.67-.55-.37-1.36,0-1.42.66-.03.33-.02.66-.02.99,0,.25,0,.49,0,.77h-.51c-.07-.22-.09-2.33-.03-3Z"/>
  <path class="cls-1" d="m5.46,87.06h-.57v-3.47h-1.37v-.51h3.29v.5h-1.35v3.48Z"/>
  <path class="cls-1" d="m62.77,84.66c-.11.07-.23.15-.38.25-.24-.29-.55-.47-.94-.42-.27.03-.52.13-.71.35-.34.41-.32,1.12.05,1.49.42.41,1.05.37,1.6-.12.12.07.25.15.37.23-.29.54-.95.78-1.63.61-.75-.18-1.2-.74-1.2-1.5,0-.73.44-1.3,1.14-1.48.73-.19,1.5.1,1.69.6Z"/>
  <path class="cls-1" d="m45.69,84.02c0-.48.04-.93.53-1.13.37-.16.74-.15,1.11.08-.05.13-.09.24-.14.38-.28-.06-.55-.21-.8.02-.18.18-.16.41-.14.67h.86v.44h-.85v2.58h-.55v-2.56c-.18-.01-.33-.02-.5-.03v-.41c.16,0,.31-.02.49-.03Z"/>
  <path class="cls-1" d="m13.68,87.04s-.06.02-.08.03q-.47.03-.66-.4c-.34-.78-.69-1.55-1.03-2.33-.04-.08-.07-.17-.11-.28h.56c.34.77.68,1.55,1.04,2.39.37-.84.71-1.61,1.06-2.4h.53c-.43,1.02-.88,2.01-1.31,2.99Z"/>
  <path class="cls-1" d="m29.03,84.48h-.86c0,.22,0,.42,0,.61,0,.31,0,.62,0,.93,0,.51.25.69.75.55.05-.01.09-.04.17-.07.05.12.1.23.16.36-.35.26-.72.27-1.1.14-.34-.12-.51-.39-.52-.74-.02-.48-.01-.95-.02-1.43,0-.11,0-.22,0-.35-.18-.01-.32-.02-.49-.03v-.42c.14,0,.29-.02.47-.03.01-.21.02-.41.03-.63h.53c0,.2.02.4.03.64h.85v.45Z"/>
  <path class="cls-1" d="m19.04,87.07c-.13,0-.22,0-.31,0-.06,0-.12,0-.2-.02v-4.22h.52v4.24Z"/>
  <path class="cls-1" d="m7.09,84.05h.49c0,.12.02.24.03.37.17-.11.32-.23.49-.3.17-.07.36-.08.57-.12v.53c-.07,0-.14,0-.21.02-.49.05-.8.35-.83.85-.02.43-.01.87-.02,1.31,0,.11,0,.22,0,.36h-.53v-3Z"/>
  <path class="cls-1" d="m26.19,84.04h.49c.07.23.08,2.68.01,3.01-.06,0-.13.01-.2.01-.09,0-.18,0-.29-.02v-3.01Z"/>
  <path class="cls-1" d="m48.14,84.05h.53c.02,1,0,2,.01,3.01-.12,0-.2.02-.28.02-.08,0-.16,0-.26-.02v-3.01Z"/>
  <path class="cls-1" d="m26.09,83.07c0-.2.19-.36.4-.34.2.02.36.19.35.37-.01.19-.21.36-.41.34-.2-.02-.35-.18-.34-.37Z"/>
  <path class="cls-1" d="m48.03,83.07c0-.2.19-.36.4-.34.2.02.36.19.35.37-.01.19-.21.36-.41.35-.2-.02-.35-.18-.34-.37Z"/>
</svg>