<?xml version="1.0" encoding="UTF-8"?>
<svg id="Layer_1" data-name="Layer 1" xmlns="http://www.w3.org/2000/svg" viewBox="0 0 79.39 88.57">
  <defs>
    <style>
      .cls-1 {
        fill: #2a81c4;
      }

      .cls-2 {
        letter-spacing: -.01em;
      }

      .cls-3 {
        fill: #010101;
        font-family: Bahnschrift-Light, Bahnschrift;
        font-size: 6.96px;
        font-variation-settings: 'wght' 300, 'wdth' 100;
        font-weight: 300;
      }

      .cls-4 {
        letter-spacing: -.01em;
      }

      .cls-5 {
        letter-spacing: 0em;
      }

      .cls-6 {
        letter-spacing: 0em;
      }
    </style>
  </defs>
  <g>
    <path class="cls-1" d="m79.2,77.42c-.06.24-.25.27-.45.27-.78,0-1.57,0-2.35,0-.36,0-.73,0-1.09,0-.36,0-.45-.06-.55-.42-.35-1.18-.69-2.37-1.04-3.56-.03-.1-.06-.2-.09-.29h-5.72c-.03.09-.06.17-.08.25-.34,1.18-.69,2.35-1.03,3.53-.02.05-.03.11-.05.16-.08.23-.18.31-.43.32-.06,0-.11,0-.17,0-4.68,0-9.37,0-14.05,0-.1,0-.19,0-.29-.01-.18-.03-.26-.13-.28-.31,0-.06,0-.13,0-.19,0-5.74,0-11.49,0-17.23,0-.45.07-.52.52-.52,1.1,0,2.2,0,3.3,0,.06,0,.11,0,.17,0,.23.02.33.13.34.36,0,.08,0,.16,0,.24,0,4.6,0,9.19,0,13.79v.34c.11,0,.2,0,.3,0,2.2,0,4.39,0,6.59,0,.17,0,.34-.01.48.16.04-.11.07-.18.09-.25,1.39-4.73,2.78-9.46,4.17-14.19.02-.07.04-.14.07-.21.06-.16.18-.25.35-.25.06,0,.13,0,.19,0,1.78,0,3.57,0,5.35,0,.02,0,.03,0,.05,0,.38,0,.45.05.56.43.67,2.27,1.33,4.54,2,6.8,1.01,3.44,2.02,6.87,3.03,10.31.04.14.08.27.12.41v.05Zm-6.49-7.55c-.75-2.39-1.23-4.8-1.85-7.16-.15-.05-.2,0-.23.12-.05.22-.1.44-.16.66-.52,2.07-.97,4.17-1.6,6.21-.02.05-.02.1-.04.17h3.87Z"/>
    <path class="cls-1" d="m41.89,78.05c-.31-.05-.62-.09-.93-.14-1.92-.33-3.55-1.16-4.76-2.72-.79-1.01-1.23-2.17-1.43-3.43-.08-.52-.11-1.04-.11-1.57,0-1.17,0-2.34,0-3.51,0-1.18.21-2.31.71-3.39.89-1.93,2.38-3.15,4.38-3.81,1.19-.39,2.42-.45,3.66-.39,1.13.06,2.2.31,3.22.81,2.06,1.01,3.32,2.66,3.84,4.89.15.66.21,1.32.21,1.99,0,1.18,0,2.36,0,3.54,0,1.13-.17,2.22-.61,3.26-.85,2.03-2.38,3.34-4.45,4.02-.62.21-1.27.31-1.92.39-.07,0-.14.03-.21.05-.53,0-1.07,0-1.6,0Zm-2.81-9.49s.01,0,.02,0c0,.67,0,1.34,0,2.01,0,.58.05,1.15.23,1.7.37,1.14,1.11,1.87,2.29,2.13.58.13,1.17.14,1.76.06,1.26-.17,2.14-.83,2.58-2.05.2-.54.27-1.1.28-1.66,0-1.46,0-2.92,0-4.39,0-.52-.07-1.03-.23-1.53-.35-1.09-1.06-1.82-2.18-2.1-.76-.19-1.52-.19-2.28,0-.98.23-1.67.82-2.07,1.73-.2.45-.33.93-.34,1.43-.03.89-.04,1.78-.05,2.66Z"/>
    <path class="cls-1" d="m77.6,33.82v3.59s-.01.02-.02.02c0,0-.01.01-.02.01-.04,0-.08.01-.12.01-25.77,0-51.54,0-77.32,0-.02,0-.05-.01-.08-.02v-3.59c.52-.03,1.03-.01,1.54-.01.51,0,1.02,0,1.53,0h21.61c.52,0,1.03,0,1.56,0,.03-.11.06-.2.09-.29,1.55-5.96,3.1-11.91,4.65-17.87.22-.85,1.03-1.34,1.88-1.12,1.17.3,2.34.61,3.51.91.12.03.23.05.37.09.16-.3.31-.6.46-.89,1.05-2.06,2.12-4.12,3.15-6.19.68-1.36,1.78-2.16,3.19-2.59.57-.18,1.17-.24,1.77-.27,1.85-.09,3.69-.19,5.54-.29,1.25-.07,2.5-.14,3.75-.21,1.38-.08,2.76-.13,4.13-.34.92-.14,1.83-.31,2.74-.46.08-.01.15-.04.2-.05.05-.37.07-.72.14-1.06.33-1.59,1.65-2.93,3.4-3.15,1.69-.21,3.06.4,4,1.82.57.86,1.06,1.77,1.58,2.67,2.04,3.48,4.09,6.96,6.13,10.45.18.31.37.63.51.96.99,2.36-.47,5.08-2.98,5.56-1.1.21-2.12,0-3.06-.6-.06-.04-.12-.08-.2-.12-.35.21-.7.42-1.05.64-1.88,1.18-3.66,2.49-5.33,3.94-.41.36-.82.74-1.23,1.09-1.37,1.17-2.94,1.91-4.72,2.23-1.07.19-2.15.19-3.23.05-1.73-.23-3.46-.29-5.2-.2-.22.01-.23.01-.28.22-.43,1.63-.85,3.26-1.28,4.89-.01.05-.02.11-.04.19h28.72Zm-37.68-17.47c.09.03.14.05.19.07,1.02.27,2.05.53,3.07.8.15.04.24,0,.33-.12.47-.59.94-1.17,1.41-1.75.64-.79,1.45-1.34,2.43-1.59.57-.14,1.16-.23,1.74-.3.33-.04.68,0,1.01.05,1.31.23,2.36.91,3.18,1.93.92,1.16.92,2.6.03,3.78-.57.74-1.31,1.23-2.19,1.53-.96.33-1.92.66-2.88.99-1.72.59-3.43,1.19-5.15,1.78-.92.32-1.85.64-2.77.96-.5.18-.94.46-1.3.86-.23.26-.41.56-.51.9-.07.25-.04.37.18.52.12.09.26.18.4.23.37.13.75.26,1.13.36.71.19,1.41.11,2.08-.19.36-.16.73-.31,1.1-.45,2.49-.93,5.08-1.32,7.73-1.4,1.75-.05,3.5.08,5.24.28,1.79.21,3.43-.25,4.88-1.32.36-.27.69-.58,1.03-.88,1.09-.97,2.23-1.89,3.4-2.76,1.13-.83,2.29-1.6,3.48-2.32.07-.04.13-.09.2-.14-.08-.14-.14-.25-.21-.36-1.59-2.71-3.18-5.42-4.77-8.13-.45-.77-.9-1.53-1.35-2.3-.1-.18-.1-.17-.28-.14-.98.18-1.96.39-2.95.54-.91.14-1.82.24-2.74.31-1.17.09-2.35.14-3.53.21-1.47.09-2.95.18-4.42.26-1.2.07-2.4.11-3.6.17-.44.02-.87.07-1.28.24-.41.17-.76.41-.97.82-.98,1.94-1.97,3.87-2.96,5.8-.12.24-.24.47-.37.74Zm-10.39,17.46h16.07c.05-.18.09-.35.14-.52.35-1.36.71-2.72,1.06-4.08.02-.06.02-.13.02-.22-.12.02-.2.04-.27.06-1.05.25-2.08.59-3.07,1.03-.66.29-1.36.46-2.08.51-1.04.07-2.04-.14-3.02-.47-.62-.21-1.21-.5-1.72-.92-.86-.69-1.34-1.58-1.35-2.7,0-.78.22-1.5.59-2.17.76-1.4,1.92-2.33,3.41-2.86.99-.35,1.98-.68,2.97-1.03.07-.03.18-.02.23-.15-.99-.26-1.98-.51-2.96-.77-.98-.26-1.97-.52-2.95-.77-.98-.25-1.96-.52-2.96-.76-1.37,5.28-2.74,10.52-4.11,15.8ZM65.73,3.16c-.24,0-.52.15-.7.45-.18.3-.19.61-.02.92.14.25.29.5.44.75,1.97,3.36,3.95,6.72,5.92,10.08.51.88,1.03,1.75,1.55,2.63.23.39.68.52,1.1.36.41-.16.66-.56.58-1-.03-.15-.1-.31-.18-.45-.4-.7-.81-1.39-1.22-2.09-2.01-3.42-4.02-6.85-6.03-10.27-.17-.29-.34-.58-.52-.88-.18-.31-.44-.51-.93-.51Zm-14.97,14.18c-.14-.12-.26-.24-.39-.34-.4-.32-.85-.44-1.36-.35-.21.04-.43.08-.64.12-.41.08-.75.29-1.01.62-.16.2-.33.4-.49.6-.03.04-.05.09-.08.14.03.02.05.05.07.05.37.1.73.2,1.1.28.06.02.14,0,.21-.02.67-.23,1.34-.46,2.01-.69.21-.08.41-.18.58-.4Z"/>
    <path class="cls-1" d="m15.48,64.99q-.3-.03-.41.2c-.27.57-.55,1.13-.81,1.71-.88,1.99-2,3.85-3.04,5.76-.12.22-.3.32-.55.32-.65,0-1.31,0-1.96,0-.26,0-.44-.1-.57-.33-.69-1.25-1.41-2.49-2.08-3.75-.5-.95-.93-1.94-1.39-2.9-.12-.26-.25-.53-.37-.79q-.11-.23-.41-.21c0,.1,0,.2.01.3.14,1.16.28,2.32.41,3.49,0,.06,0,.11,0,.17.04,2.75.07,5.49.11,8.24,0,.06,0,.11,0,.17-.01.2-.11.31-.31.34-.06,0-.13,0-.19,0-1.14,0-2.28,0-3.42,0-.06,0-.13,0-.19,0-.21-.03-.3-.13-.31-.33,0-.07,0-.15,0-.22,0-5.72,0-11.44,0-17.15,0-.07,0-.15,0-.22.01-.22.11-.32.33-.34.06,0,.13,0,.19,0,1.44,0,2.87,0,4.31,0,.06,0,.11,0,.17,0,.24,0,.4.11.51.33.42.84.85,1.69,1.28,2.53.89,1.75,1.78,3.5,2.66,5.25.02.04.04.09.07.13.09.15.2.15.29,0,.03-.05.05-.1.08-.15,1.31-2.57,2.61-5.14,3.91-7.71.14-.28.33-.39.63-.39,1.49,0,2.97,0,4.46,0,.06,0,.11,0,.17,0,.18.03.27.12.29.3,0,.07,0,.15,0,.22,0,5.73,0,11.47,0,17.2,0,.47-.07.54-.55.54-1.11,0-2.23,0-3.34,0-.05,0-.1,0-.15,0-.29-.02-.39-.12-.39-.41,0-.8.01-1.6.02-2.4.02-1.81.06-3.62.07-5.43,0-.54.06-1.06.13-1.59.1-.88.21-1.76.31-2.64,0-.07,0-.14.01-.23Z"/>
    <path class="cls-1" d="m42.23,51.72h.32c-.03-.4-.07-.78-.1-1.16-.07-.79-.14-1.58-.22-2.36-.09-.83-.08-1.66-.08-2.49,0-1.82,0-3.63,0-5.45,0-.46.08-.54.53-.54,1.1,0,2.2,0,3.29,0,.06,0,.13,0,.19,0,.18.02.29.13.31.31,0,.07,0,.15,0,.22,0,5.73,0,11.47,0,17.2,0,.03,0,.06,0,.1,0,.32-.12.44-.44.44-1.3,0-2.6,0-3.9,0-.3,0-.5-.12-.65-.38-1.11-1.93-2.21-3.87-3.34-5.79-1.07-1.82-1.99-3.71-2.95-5.59-.04-.09-.09-.17-.14-.26-.06,0-.12,0-.17,0-.04,0-.08,0-.14,0,.03.29.05.56.08.83.09.89.19,1.78.27,2.67.04.48.06.97.06,1.45,0,2.16,0,4.33,0,6.49,0,.07,0,.15,0,.22-.01.21-.12.32-.33.34-.05,0-.1,0-.15,0-1.12,0-2.25,0-3.37,0-.06,0-.11,0-.17,0-.19-.02-.29-.13-.31-.31,0-.06,0-.13,0-.19,0-5.75,0-11.5,0-17.25,0-.06,0-.11,0-.17.01-.2.12-.31.31-.34.06,0,.13,0,.19,0,1.26,0,2.52,0,3.78,0,.33,0,.54.12.7.41,1.35,2.37,2.72,4.73,4.05,7.11.67,1.2,1.28,2.44,1.92,3.67.15.28.29.56.43.83Z"/>
    <path class="cls-1" d="m47.47,48.84c0-2.86,0-5.72,0-8.58,0-.47.08-.55.54-.55,2.2,0,4.39,0,6.59,0,1.14,0,2.25.17,3.32.59,2.2.87,3.57,2.48,4.17,4.76.19.71.29,1.44.3,2.18,0,1.09.02,2.18,0,3.27-.02,1.05-.21,2.07-.6,3.05-.83,2.06-2.34,3.38-4.45,4.03-.84.26-1.7.39-2.58.39-2.28,0-4.55,0-6.83,0-.35,0-.46-.11-.46-.47,0-2.89,0-5.78,0-8.67Zm4.35,5.6c.07,0,.11,0,.15,0,.78,0,1.57,0,2.35,0,.3,0,.61-.04.91-.1,1.27-.25,2.13-.98,2.52-2.23.17-.54.26-1.1.26-1.67.01-1.07.02-2.13,0-3.2,0-.63-.11-1.25-.33-1.85-.38-1.01-1.08-1.66-2.12-1.96-.44-.12-.88-.19-1.34-.19-.74,0-1.49,0-2.23,0-.06,0-.12.01-.18.02v11.17Z"/>
    <path class="cls-1" d="m14.01,48.83c.02-.86,0-1.71.07-2.57.15-1.99.9-3.72,2.44-5.05.96-.83,2.08-1.36,3.31-1.62,1.75-.36,3.51-.36,5.21.22,2.75.93,4.37,2.85,4.87,5.7.09.54.13,1.09.14,1.64.02,1.19.01,2.37,0,3.56,0,1.12-.2,2.2-.64,3.23-.85,1.97-2.34,3.25-4.35,3.93-.86.29-1.75.42-2.66.44-.97.02-1.94-.04-2.88-.29-1.8-.49-3.26-1.45-4.29-3.03-.62-.96-.98-2.02-1.11-3.15-.06-.53-.07-1.06-.09-1.59-.01-.48,0-.95,0-1.43h-.02Zm11.6.04c0-.76,0-1.52,0-2.28,0-.57-.09-1.13-.3-1.66-.4-1.05-1.16-1.71-2.27-1.94-.62-.13-1.24-.13-1.85-.03-1.14.19-1.95.81-2.39,1.89-.21.51-.32,1.04-.32,1.58-.01,1.61,0,3.21,0,4.82,0,.46.09.92.24,1.35.38,1.12,1.14,1.83,2.31,2.08.61.13,1.22.13,1.83.04,1.14-.17,1.96-.78,2.41-1.86.24-.57.33-1.16.34-1.77,0-.74,0-1.49,0-2.23Z"/>
    <path class="cls-1" d="m66.69,53.73c-.03.1-.06.19-.09.28-.34,1.18-.69,2.35-1.03,3.53-.02.08-.05.15-.08.23-.06.14-.17.21-.32.22-.05,0-.1,0-.15,0-1.14,0-2.28,0-3.42,0-.06,0-.11,0-.17,0-.25-.03-.35-.17-.28-.42.17-.59.34-1.18.51-1.77,1.53-5.21,3.06-10.42,4.59-15.63.01-.05.03-.09.04-.14.08-.24.18-.32.45-.32,1.87,0,3.73,0,5.6,0,.29,0,.38.07.47.38.37,1.24.73,2.48,1.09,3.71,1.34,4.54,2.67,9.09,4,13.63.01.04.02.08.03.12.07.26-.03.4-.3.42-.06,0-.13,0-.19,0-1.1,0-2.2,0-3.29,0-.45,0-.51-.04-.63-.47-.34-1.18-.69-2.35-1.03-3.53-.02-.08-.05-.17-.09-.26h-5.73Zm4.81-3.55c-.74-2.38-1.23-4.79-1.85-7.15-.15-.07-.2,0-.23.12-.08.34-.16.67-.24,1.01-.47,1.9-.88,3.82-1.46,5.69-.03.11-.06.21-.09.33h3.88Z"/>
    <path class="cls-1" d="m24.78,71.58v.33c0,1.74,0,3.47,0,5.21,0,.07,0,.15,0,.22-.01.2-.11.31-.31.34-.07.01-.14,0-.22,0-1.09,0-2.18,0-3.27,0-.06,0-.11,0-.17,0-.24-.02-.34-.13-.35-.37,0-.06,0-.11,0-.17,0-5.73,0-11.45,0-17.18,0-.51.16-.55.55-.55,2.26,0,4.52,0,6.78,0,1.13,0,2.24.15,3.3.55.55.21,1.07.49,1.54.85.95.74,1.53,1.72,1.77,2.89.24,1.16.24,2.33-.05,3.48-.44,1.75-1.54,2.95-3.17,3.68-.94.42-1.93.64-2.96.68-1.04.04-2.08.03-3.12.03-.1,0-.19,0-.32,0Zm0-3.39s.08.02.11.02c.84,0,1.68,0,2.52-.01.49-.01.96-.11,1.41-.32.63-.29,1.03-.76,1.19-1.43.12-.52.12-1.04.05-1.56-.12-.88-.62-1.46-1.46-1.72-.31-.1-.64-.17-.97-.19-.9-.03-1.81-.03-2.71-.04-.04,0-.09.02-.14.03v5.22Z"/>
    <path class="cls-1" d="m1.03,55.39c0-.44.02-.89,0-1.33-.02-.39.21-.48.52-.37.66.22,1.32.43,1.98.63.65.2,1.3.37,1.98.44.77.08,1.55.11,2.31-.07.36-.08.69-.23.98-.45.72-.54.71-1.48.49-1.99-.1-.23-.25-.42-.46-.55-.27-.17-.55-.34-.85-.45-.77-.28-1.54-.52-2.32-.77-.87-.28-1.71-.63-2.49-1.1-.6-.36-1.13-.8-1.57-1.35-.59-.75-.9-1.62-.95-2.57-.04-.74-.02-1.47.2-2.18.33-1.07.97-1.92,1.88-2.57.86-.62,1.83-.98,2.87-1.17,1.07-.2,2.14-.18,3.21-.07,1.01.1,2,.27,2.97.55.15.04.29.1.43.15.17.06.26.18.28.36,0,.08.01.16.01.24,0,.88,0,1.76,0,2.64,0,.05,0,.1,0,.15-.02.19-.16.3-.35.28-.08-.01-.16-.04-.23-.06-.79-.22-1.58-.46-2.38-.66-.8-.2-1.63-.24-2.45-.18-.42.03-.83.14-1.2.35-.73.42-.95,1.06-.82,1.83.05.3.21.55.46.71.26.17.53.34.82.45.66.25,1.34.46,2.02.68.81.26,1.61.54,2.37.92.64.32,1.24.7,1.75,1.2.79.77,1.22,1.72,1.34,2.8.09.77.08,1.55-.11,2.31-.31,1.25-1.03,2.21-2.09,2.92-.87.58-1.83.91-2.85,1.08-1.26.22-2.52.18-3.79.01-1.07-.14-2.13-.36-3.16-.69-.15-.05-.3-.11-.45-.17-.23-.09-.34-.26-.33-.51,0-.48,0-.95,0-1.43h0Z"/>
  </g>
  <text class="cls-3" transform="translate(.67 86.85)"><tspan x="0" y="0">S</tspan><tspan class="cls-2" x="4.29" y="0">a</tspan><tspan class="cls-5" x="7.89" y="0">v</tspan><tspan class="cls-6" x="11.3" y="0">e </tspan><tspan class="cls-2" x="16.22" y="0">f</tspan><tspan x="18.32" y="0">or a Sac</tspan><tspan class="cls-5" x="42.62" y="0">r</tspan><tspan x="45.53" y="0">ed j</tspan><tspan class="cls-4" x="56.07" y="0">o</tspan><tspan x="59.77" y="0">urn</tspan><tspan class="cls-5" x="70.5" y="0">e</tspan><tspan class="cls-6" x="74.17" y="0">y </tspan></text>
</svg>